<mxfile host="app.diagrams.net" modified="2023-01-19T11:38:00.854Z" agent="5.0 (Windows NT 10.0; Win64; x64) AppleWebKit/537.36 (KHTML, like Gecko) Chrome/109.0.0.0 Safari/537.36" etag="hHqmKkIf-uzW1-FIutkT" version="16.1.0" type="github">
  <diagram id="-QxohVQDlCznNOCWWQ3G" name="Page-1">
    <mxGraphModel dx="1662" dy="754" grid="1" gridSize="10" guides="1" tooltips="1" connect="1" arrows="1" fold="1" page="1" pageScale="1" pageWidth="827" pageHeight="1169" math="0" shadow="0">
      <root>
        <mxCell id="0" />
        <mxCell id="1" parent="0" />
        <mxCell id="AnMN8UAfdDLze9cw-uUk-1" value="Digital N-Vite" style="rounded=0;whiteSpace=wrap;html=1;verticalAlign=top;" parent="1" vertex="1">
          <mxGeometry x="120" y="70" width="560" height="1040" as="geometry" />
        </mxCell>
        <mxCell id="AnMN8UAfdDLze9cw-uUk-2" value="Customer" style="shape=umlActor;verticalLabelPosition=bottom;verticalAlign=middle;html=1;outlineConnect=0;" parent="1" vertex="1">
          <mxGeometry x="30" y="280" width="30" height="60" as="geometry" />
        </mxCell>
        <mxCell id="AnMN8UAfdDLze9cw-uUk-3" value="Admin" style="shape=umlActor;verticalLabelPosition=bottom;verticalAlign=middle;html=1;outlineConnect=0;" parent="1" vertex="1">
          <mxGeometry x="760" y="280" width="30" height="60" as="geometry" />
        </mxCell>
        <mxCell id="AnMN8UAfdDLze9cw-uUk-4" value="Register" style="ellipse;whiteSpace=wrap;html=1;" parent="1" vertex="1">
          <mxGeometry x="350" y="110" width="80" height="50" as="geometry" />
        </mxCell>
        <mxCell id="AnMN8UAfdDLze9cw-uUk-68" value="" style="edgeStyle=orthogonalEdgeStyle;rounded=0;orthogonalLoop=1;jettySize=auto;html=1;" parent="1" source="AnMN8UAfdDLze9cw-uUk-5" target="AnMN8UAfdDLze9cw-uUk-7" edge="1">
          <mxGeometry relative="1" as="geometry" />
        </mxCell>
        <mxCell id="AnMN8UAfdDLze9cw-uUk-5" value="Login" style="ellipse;whiteSpace=wrap;html=1;" parent="1" vertex="1">
          <mxGeometry x="172.5" y="220" width="105" height="60" as="geometry" />
        </mxCell>
        <mxCell id="AnMN8UAfdDLze9cw-uUk-60" value="" style="edgeStyle=orthogonalEdgeStyle;rounded=0;orthogonalLoop=1;jettySize=auto;html=1;" parent="1" source="AnMN8UAfdDLze9cw-uUk-7" target="AnMN8UAfdDLze9cw-uUk-18" edge="1">
          <mxGeometry relative="1" as="geometry" />
        </mxCell>
        <mxCell id="AnMN8UAfdDLze9cw-uUk-7" value="Customize Order" style="ellipse;whiteSpace=wrap;html=1;" parent="1" vertex="1">
          <mxGeometry x="165" y="320" width="120" height="80" as="geometry" />
        </mxCell>
        <mxCell id="AnMN8UAfdDLze9cw-uUk-23" value="" style="edgeStyle=orthogonalEdgeStyle;rounded=0;orthogonalLoop=1;jettySize=auto;html=1;" parent="1" source="AnMN8UAfdDLze9cw-uUk-8" target="AnMN8UAfdDLze9cw-uUk-9" edge="1">
          <mxGeometry relative="1" as="geometry" />
        </mxCell>
        <mxCell id="AnMN8UAfdDLze9cw-uUk-8" value="Manage Customer" style="ellipse;whiteSpace=wrap;html=1;" parent="1" vertex="1">
          <mxGeometry x="500" y="140" width="120" height="80" as="geometry" />
        </mxCell>
        <mxCell id="AnMN8UAfdDLze9cw-uUk-24" value="" style="edgeStyle=orthogonalEdgeStyle;rounded=0;orthogonalLoop=1;jettySize=auto;html=1;" parent="1" source="AnMN8UAfdDLze9cw-uUk-9" target="AnMN8UAfdDLze9cw-uUk-10" edge="1">
          <mxGeometry relative="1" as="geometry" />
        </mxCell>
        <mxCell id="AnMN8UAfdDLze9cw-uUk-64" value="&amp;lt;&amp;lt;uses&amp;gt;&amp;gt;" style="edgeStyle=orthogonalEdgeStyle;rounded=0;orthogonalLoop=1;jettySize=auto;html=1;" parent="1" source="AnMN8UAfdDLze9cw-uUk-9" target="AnMN8UAfdDLze9cw-uUk-46" edge="1">
          <mxGeometry relative="1" as="geometry" />
        </mxCell>
        <mxCell id="AnMN8UAfdDLze9cw-uUk-9" value="Manage Category&lt;span style=&quot;color: rgb(0, 0, 0); font-size: medium; text-align: start;&quot;&gt;&lt;/span&gt;" style="ellipse;whiteSpace=wrap;html=1;" parent="1" vertex="1">
          <mxGeometry x="500" y="250" width="120" height="80" as="geometry" />
        </mxCell>
        <mxCell id="AnMN8UAfdDLze9cw-uUk-25" value="" style="edgeStyle=orthogonalEdgeStyle;rounded=0;orthogonalLoop=1;jettySize=auto;html=1;" parent="1" source="AnMN8UAfdDLze9cw-uUk-10" target="AnMN8UAfdDLze9cw-uUk-11" edge="1">
          <mxGeometry relative="1" as="geometry" />
        </mxCell>
        <mxCell id="AnMN8UAfdDLze9cw-uUk-10" value="Manage Orders" style="ellipse;whiteSpace=wrap;html=1;" parent="1" vertex="1">
          <mxGeometry x="500" y="370" width="120" height="80" as="geometry" />
        </mxCell>
        <mxCell id="AnMN8UAfdDLze9cw-uUk-11" value="View Orders" style="ellipse;whiteSpace=wrap;html=1;" parent="1" vertex="1">
          <mxGeometry x="500" y="490" width="120" height="80" as="geometry" />
        </mxCell>
        <mxCell id="AnMN8UAfdDLze9cw-uUk-59" value="" style="edgeStyle=orthogonalEdgeStyle;rounded=0;orthogonalLoop=1;jettySize=auto;html=1;" parent="1" source="AnMN8UAfdDLze9cw-uUk-18" target="AnMN8UAfdDLze9cw-uUk-19" edge="1">
          <mxGeometry relative="1" as="geometry" />
        </mxCell>
        <mxCell id="AnMN8UAfdDLze9cw-uUk-18" value="Send Invitation" style="ellipse;whiteSpace=wrap;html=1;" parent="1" vertex="1">
          <mxGeometry x="165" y="420" width="120" height="80" as="geometry" />
        </mxCell>
        <mxCell id="AnMN8UAfdDLze9cw-uUk-63" value="" style="edgeStyle=orthogonalEdgeStyle;rounded=0;orthogonalLoop=1;jettySize=auto;html=1;" parent="1" source="AnMN8UAfdDLze9cw-uUk-19" target="AnMN8UAfdDLze9cw-uUk-47" edge="1">
          <mxGeometry relative="1" as="geometry" />
        </mxCell>
        <mxCell id="AnMN8UAfdDLze9cw-uUk-19" value="Place Order" style="ellipse;whiteSpace=wrap;html=1;" parent="1" vertex="1">
          <mxGeometry x="165" y="540" width="120" height="80" as="geometry" />
        </mxCell>
        <mxCell id="AnMN8UAfdDLze9cw-uUk-29" value="" style="endArrow=classic;html=1;rounded=0;entryX=0;entryY=0.5;entryDx=0;entryDy=0;" parent="1" target="AnMN8UAfdDLze9cw-uUk-6" edge="1">
          <mxGeometry relative="1" as="geometry">
            <mxPoint x="60" y="340" as="sourcePoint" />
            <mxPoint x="180" y="369" as="targetPoint" />
          </mxGeometry>
        </mxCell>
        <mxCell id="AnMN8UAfdDLze9cw-uUk-32" value="" style="endArrow=classic;html=1;rounded=0;entryX=0;entryY=0.5;entryDx=0;entryDy=0;" parent="1" target="AnMN8UAfdDLze9cw-uUk-5" edge="1">
          <mxGeometry width="50" height="50" relative="1" as="geometry">
            <mxPoint x="60" y="340" as="sourcePoint" />
            <mxPoint x="380" y="370" as="targetPoint" />
          </mxGeometry>
        </mxCell>
        <mxCell id="AnMN8UAfdDLze9cw-uUk-41" value="" style="endArrow=classic;html=1;rounded=0;" parent="1" target="AnMN8UAfdDLze9cw-uUk-11" edge="1">
          <mxGeometry width="50" height="50" relative="1" as="geometry">
            <mxPoint x="760" y="340" as="sourcePoint" />
            <mxPoint x="380" y="370" as="targetPoint" />
            <Array as="points">
              <mxPoint x="720" y="440" />
            </Array>
          </mxGeometry>
        </mxCell>
        <mxCell id="AnMN8UAfdDLze9cw-uUk-42" value="" style="endArrow=classic;html=1;rounded=0;entryX=0.933;entryY=0.25;entryDx=0;entryDy=0;entryPerimeter=0;" parent="1" target="AnMN8UAfdDLze9cw-uUk-10" edge="1">
          <mxGeometry width="50" height="50" relative="1" as="geometry">
            <mxPoint x="760" y="340" as="sourcePoint" />
            <mxPoint x="380" y="370" as="targetPoint" />
            <Array as="points">
              <mxPoint x="700" y="380" />
            </Array>
          </mxGeometry>
        </mxCell>
        <mxCell id="AnMN8UAfdDLze9cw-uUk-43" value="" style="endArrow=classic;html=1;rounded=0;entryX=1;entryY=0.5;entryDx=0;entryDy=0;" parent="1" target="AnMN8UAfdDLze9cw-uUk-9" edge="1">
          <mxGeometry width="50" height="50" relative="1" as="geometry">
            <mxPoint x="760" y="340" as="sourcePoint" />
            <mxPoint x="380" y="370" as="targetPoint" />
          </mxGeometry>
        </mxCell>
        <mxCell id="AnMN8UAfdDLze9cw-uUk-46" value="Sub-Category&lt;span style=&quot;color: rgb(0, 0, 0); font-size: medium; text-align: start;&quot;&gt;&lt;/span&gt;" style="ellipse;whiteSpace=wrap;html=1;" parent="1" vertex="1">
          <mxGeometry x="330" y="250" width="90" height="80" as="geometry" />
        </mxCell>
        <mxCell id="AnMN8UAfdDLze9cw-uUk-47" value="Online payment" style="ellipse;whiteSpace=wrap;html=1;" parent="1" vertex="1">
          <mxGeometry x="165" y="670" width="120" height="80" as="geometry" />
        </mxCell>
        <mxCell id="AnMN8UAfdDLze9cw-uUk-48" value="COD" style="ellipse;whiteSpace=wrap;html=1;" parent="1" vertex="1">
          <mxGeometry x="240" y="800" width="100" height="60" as="geometry" />
        </mxCell>
        <mxCell id="AnMN8UAfdDLze9cw-uUk-49" value="" style="endArrow=classic;html=1;rounded=0;entryX=0;entryY=0;entryDx=0;entryDy=0;" parent="1" target="AnMN8UAfdDLze9cw-uUk-47" edge="1">
          <mxGeometry width="50" height="50" relative="1" as="geometry">
            <mxPoint x="60" y="340" as="sourcePoint" />
            <mxPoint x="380" y="420" as="targetPoint" />
            <Array as="points">
              <mxPoint x="70" y="600" />
            </Array>
          </mxGeometry>
        </mxCell>
        <mxCell id="AnMN8UAfdDLze9cw-uUk-50" value="Debit card" style="ellipse;whiteSpace=wrap;html=1;" parent="1" vertex="1">
          <mxGeometry x="120" y="800" width="100" height="60" as="geometry" />
        </mxCell>
        <mxCell id="AnMN8UAfdDLze9cw-uUk-66" value="" style="edgeStyle=orthogonalEdgeStyle;rounded=0;orthogonalLoop=1;jettySize=auto;html=1;" parent="1" source="AnMN8UAfdDLze9cw-uUk-6" target="AnMN8UAfdDLze9cw-uUk-5" edge="1">
          <mxGeometry relative="1" as="geometry" />
        </mxCell>
        <mxCell id="AnMN8UAfdDLze9cw-uUk-6" value="Browse Card" style="ellipse;whiteSpace=wrap;html=1;" parent="1" vertex="1">
          <mxGeometry x="180" y="100" width="90" height="70" as="geometry" />
        </mxCell>
        <mxCell id="AnMN8UAfdDLze9cw-uUk-67" value="&amp;lt;&amp;lt;Extend&amp;gt;&amp;gt;" style="endArrow=classic;html=1;rounded=0;entryX=0;entryY=1;entryDx=0;entryDy=0;exitX=1;exitY=0;exitDx=0;exitDy=0;" parent="1" source="AnMN8UAfdDLze9cw-uUk-5" target="AnMN8UAfdDLze9cw-uUk-4" edge="1">
          <mxGeometry width="50" height="50" relative="1" as="geometry">
            <mxPoint x="250" y="230" as="sourcePoint" />
            <mxPoint x="300" y="180" as="targetPoint" />
          </mxGeometry>
        </mxCell>
        <mxCell id="AnMN8UAfdDLze9cw-uUk-70" value="" style="edgeStyle=elbowEdgeStyle;elbow=vertical;endArrow=classic;html=1;curved=0;rounded=0;endSize=8;startSize=8;" parent="1" edge="1">
          <mxGeometry width="50" height="50" relative="1" as="geometry">
            <mxPoint x="172.5" y="800" as="sourcePoint" />
            <mxPoint x="222.5" y="750" as="targetPoint" />
          </mxGeometry>
        </mxCell>
        <mxCell id="AnMN8UAfdDLze9cw-uUk-71" value="" style="edgeStyle=orthogonalEdgeStyle;elbow=vertical;endArrow=classic;html=1;rounded=0;endSize=8;startSize=8;exitX=0.5;exitY=0;exitDx=0;exitDy=0;entryX=0.5;entryY=1;entryDx=0;entryDy=0;" parent="1" source="AnMN8UAfdDLze9cw-uUk-48" target="AnMN8UAfdDLze9cw-uUk-47" edge="1">
          <mxGeometry width="50" height="50" relative="1" as="geometry">
            <mxPoint x="390" y="730" as="sourcePoint" />
            <mxPoint x="440" y="680" as="targetPoint" />
          </mxGeometry>
        </mxCell>
        <mxCell id="9O6aD1PrP0EdiYuHEUZ5-1" value="" style="endArrow=classic;html=1;rounded=0;entryX=1;entryY=0.6;entryDx=0;entryDy=0;entryPerimeter=0;" edge="1" parent="1" target="AnMN8UAfdDLze9cw-uUk-8">
          <mxGeometry width="50" height="50" relative="1" as="geometry">
            <mxPoint x="760" y="340" as="sourcePoint" />
            <mxPoint x="440" y="460" as="targetPoint" />
          </mxGeometry>
        </mxCell>
        <mxCell id="9O6aD1PrP0EdiYuHEUZ5-2" value="" style="endArrow=classic;html=1;rounded=0;entryX=1;entryY=0.5;entryDx=0;entryDy=0;" edge="1" parent="1" target="AnMN8UAfdDLze9cw-uUk-47">
          <mxGeometry width="50" height="50" relative="1" as="geometry">
            <mxPoint x="760" y="340" as="sourcePoint" />
            <mxPoint x="480" y="480" as="targetPoint" />
            <Array as="points">
              <mxPoint x="700" y="620" />
            </Array>
          </mxGeometry>
        </mxCell>
      </root>
    </mxGraphModel>
  </diagram>
</mxfile>
